<?xml version="1.0" encoding="iso-8859-1"?>
<!-- Generator: Adobe Illustrator 19.0.0, SVG Export Plug-In . SVG Version: 6.00 Build 0)  -->
<svg xmlns="http://www.w3.org/2000/svg" xmlns:xlink="http://www.w3.org/1999/xlink" version="1.1" id="Layer_1" x="0px" y="0px" viewBox="0 0 512 512" style="enable-background:new 0 0 512 512;" xml:space="preserve" width="512px" height="512px">
<g>
	<g>
		<path d="M457.169,235.386c-6.104,23.237-18.364,44.552-35.456,61.643c-1.196,1.197-2.432,2.388-3.67,3.538l10.424,11.217    c1.375-1.277,2.745-2.599,4.074-3.927c19.007-19.008,32.644-42.723,39.438-68.581L457.169,235.386z" fill="#7b001d"/>
	</g>
</g>
<g>
	<g>
		<path d="M406.591,310.108c-4.318,3.214-8.865,6.195-13.515,8.862l7.619,13.283c5.176-2.968,10.236-6.286,15.04-9.863    L406.591,310.108z" fill="#7b001d"/>
	</g>
</g>
<g>
	<g>
		<path d="M506.334,220.514c-3.379-1.348-6.411-3.338-9.004-5.921c-9.167-9.167-10.413-23.5-2.971-34.086l7.023-9.994l-12.056-1.96    c-8.371-1.368-15.956-5.257-21.958-11.25c-11.035-11.035-14.7-27.654-9.33-42.324l2.103-5.768l-5.176-3.307    c-1.633-1.051-3.144-2.266-4.502-3.614c-9.269-9.279-10.361-24.184-2.542-34.688l4.298-5.758l-5.482-4.655    c-35.852-30.431-81.565-46.183-128.727-44.376c-47.418,1.817-92.028,21.315-125.614,54.901    c-17.273,17.273-30.758,37.332-40.068,59.147C65.67,143.542,0,219.943,0,311.389c0,103.625,84.301,187.936,187.926,187.936    c77.481,0,144.162-47.142,172.878-114.252c35.699-6.809,69.784-24.01,97.367-51.583c28.604-28.604,46.897-64.813,52.92-104.717    L512,222.75L506.334,220.514z M187.926,484.011c-95.183,0-172.613-77.441-172.613-172.623c0-95.172,77.43-172.613,172.613-172.613    s172.613,77.441,172.613,172.613C360.539,406.571,283.108,484.011,187.926,484.011z M284.507,150.239    c11.842-9.606,26.307-14.404,40.782-14.404c16.589,0,33.177,6.309,45.815,18.947c25.266,25.266,25.266,66.375,0,91.63    c-1.654,1.654-3.389,3.205-5.186,4.655C351.504,208.641,322.308,172.984,284.507,150.239z M447.34,322.659    c-22.948,22.948-50.797,38.057-80.207,45.356c5.655-17.875,8.718-36.893,8.718-56.626c0-15.374-1.868-30.329-5.37-44.641    c4.053-2.787,7.891-5.951,11.444-9.504c31.238-31.238,31.238-82.055,0-113.292c-30.717-30.717-80.37-31.197-111.72-1.49    c-18.048-8.83-37.699-14.853-58.402-17.487c4.961-7.432,10.658-14.404,17.048-20.805c22.489-22.489,52.287-36.474,83.902-39.374    l-1.399-15.241c-35.168,3.216-68.314,18.773-93.325,43.784c-9.126,9.126-16.977,19.294-23.438,30.258    c-2.215-0.082-4.43-0.133-6.666-0.133c-5.921,0-11.78,0.286-17.558,0.827c8.259-16.732,19.284-32.177,32.861-45.754    c33.351-33.351,77.757-50.256,122.255-50.256c37.577,0,75.225,12.066,106.3,36.464c-7.871,15.823-4.992,35.525,7.86,48.367    c0.735,0.745,1.511,1.46,2.307,2.144c-4.706,18.794,0.735,39.016,14.598,52.869c5.819,5.819,12.72,10.208,20.325,12.954    c-5.676,15.078-2.246,32.463,9.626,44.335c2.572,2.573,5.431,4.778,8.534,6.584C488.705,266.461,472.289,297.709,447.34,322.659z" fill="#7b001d"/>
	</g>
</g>
<g>
	<g>
		<path d="M187.927,231.284c-44.172,0-80.109,35.936-80.109,80.11c0,44.173,35.938,80.109,80.109,80.109    s80.109-35.936,80.109-80.109C268.035,267.22,232.098,231.284,187.927,231.284z M187.927,376.19    c-35.728,0-64.797-29.068-64.797-64.797c0-20.329,9.418-38.493,24.111-50.381c9.132,26.994,24.417,51.732,45.157,72.472    c11.12,11.12,23.303,20.541,36.218,28.285C217.484,370.779,203.328,376.19,187.927,376.19z M239.588,350.448    c-13.015-7.438-25.266-16.694-36.363-27.791c-19.928-19.928-34.372-43.874-42.599-70.009c-0.343-1.118,10.162-3.614,11.101-3.858    c28.377-7.348,58.553,5.452,72.887,31.246c5.313,9.561,8.109,20.421,8.109,31.357    C252.722,326.049,247.824,339.579,239.588,350.448z" fill="#7b001d"/>
	</g>
</g>
<g>
</g>
<g>
</g>
<g>
</g>
<g>
</g>
<g>
</g>
<g>
</g>
<g>
</g>
<g>
</g>
<g>
</g>
<g>
</g>
<g>
</g>
<g>
</g>
<g>
</g>
<g>
</g>
<g>
</g>
</svg>
