<?xml version="1.0" encoding="iso-8859-1"?>
<!-- Generator: Adobe Illustrator 19.0.0, SVG Export Plug-In . SVG Version: 6.00 Build 0)  -->
<svg xmlns="http://www.w3.org/2000/svg" xmlns:xlink="http://www.w3.org/1999/xlink" version="1.1" id="Layer_1" x="0px" y="0px" viewBox="0 0 512 512" style="enable-background:new 0 0 512 512;" xml:space="preserve" width="512px" height="512px">
<g>
	<g>
		<path d="M471.101,379.893V355.75V206.553v-0.834h-0.021c-0.45-31.782-26.428-57.501-58.315-57.501h-94.324    c3.058-4.916,4.83-10.71,4.83-16.913c0-17.102-13.434-31.12-30.302-32.067c-7.412-12.733-21.202-21.317-36.967-21.317    s-29.555,8.584-36.967,21.317c-16.869,0.946-30.303,14.966-30.303,32.067c0,6.203,1.772,11.997,4.83,16.913H109.55    c-31.887,0-57.865,25.72-58.315,57.501h-0.021v0.834v149.198v24.142H0v54.187h512v-54.187H471.101z M298.754,120.671    c0-1.546-0.087-3.071-0.248-4.575c5.646,2.743,9.557,8.519,9.557,15.207c0,9.326-7.587,16.913-16.913,16.913    c-0.793,0-1.567-0.074-2.332-0.18C295.015,140.616,298.754,131.074,298.754,120.671z M256,93.127    c15.189,0,27.546,12.357,27.546,27.546S271.189,148.217,256,148.217s-27.546-12.357-27.546-27.545    C228.454,105.483,240.811,93.127,256,93.127z M213.495,116.097c-0.161,1.504-0.248,3.029-0.248,4.576    c0,10.402,3.738,19.945,9.936,27.365c-0.764,0.106-1.539,0.18-2.332,0.18c-9.327,0-16.914-7.587-16.914-16.913    C203.937,124.616,207.849,118.839,213.495,116.097z M109.549,163.425h303.216c23.725,0,43.033,19.256,43.125,42.96    c-15.685,2.844-24.389,14.343-32.186,24.654c-4.866,6.435-9.461,12.512-15.319,16.019l-3.698,2.214v50.623    c0,4.505-3.664,8.169-8.17,8.169c-4.505,0-8.17-3.664-8.17-8.169v-50.257l-3.924-2.171c-6.204-3.432-10.978-9.745-16.033-16.43    c-8.975-11.868-19.147-25.32-39.793-25.32c-20.645,0-30.816,13.453-39.79,25.322c-4.96,6.56-9.644,12.755-15.671,16.228    l-3.809,2.194v31.822c0,4.505-3.664,8.169-8.17,8.169c-4.505,0-8.169-3.664-8.169-8.169v-31.816l-3.812-2.193    c-6.034-3.47-10.721-9.671-15.682-16.234c-8.974-11.869-19.144-25.323-39.79-25.323c-20.644,0-30.814,13.454-39.787,25.324    c-9.039,11.958-15.21,19.286-27.655,19.286s-18.617-7.329-27.656-19.286c-7.795-10.311-16.497-21.812-32.18-24.656    C66.515,182.682,85.823,163.425,109.549,163.425z M66.42,340.542V222.025c7.788,2.463,13.063,8.941,20.053,18.188    c8.973,11.87,19.143,25.323,39.788,25.323s30.814-13.454,39.787-25.324c9.04-11.957,15.211-19.286,27.655-19.286    c12.446,0,18.619,7.329,27.658,19.286c4.795,6.342,9.727,12.866,16.418,17.761v23.312c0,12.89,10.486,23.377,23.377,23.377    c12.89,0,23.378-10.486,23.378-23.377v-23.323c6.684-4.894,11.613-11.412,16.403-17.749c9.041-11.957,15.213-19.286,27.659-19.286    c12.447,0,18.622,7.328,27.663,19.285c4.907,6.489,9.956,13.166,16.879,18.09v41.593c0,12.89,10.487,23.377,23.378,23.377    c12.89,0,23.378-10.486,23.378-23.377v-42.282c6.453-4.855,11.263-11.217,15.941-17.402c6.993-9.246,12.27-15.726,20.059-18.188    v118.518v39.352H66.42V340.542z M496.792,418.872H15.208v-23.771h36.004h419.889h25.691V418.872z" fill="#7b001d"/>
	</g>
</g>
<g>
	<g>
		<polygon points="416.107,349.478 416.107,357.082 416.107,364.685 430.615,364.685 430.615,349.478   " fill="#7b001d"/>
	</g>
</g>
<g>
	<g>
		<polygon points="285.135,349.478 285.135,357.082 285.135,364.685 400.851,364.685 400.851,349.478   " fill="#7b001d"/>
	</g>
</g>
<g>
</g>
<g>
</g>
<g>
</g>
<g>
</g>
<g>
</g>
<g>
</g>
<g>
</g>
<g>
</g>
<g>
</g>
<g>
</g>
<g>
</g>
<g>
</g>
<g>
</g>
<g>
</g>
<g>
</g>
</svg>
