<?xml version="1.0" encoding="iso-8859-1"?>
<!-- Generator: Adobe Illustrator 19.0.0, SVG Export Plug-In . SVG Version: 6.00 Build 0)  -->
<svg version="1.1" id="Cake" xmlns="http://www.w3.org/2000/svg" xmlns:xlink="http://www.w3.org/1999/xlink" x="0px" y="0px"
	 viewBox="0 0 512 512" style="enable-background:new 0 0 512 512;" xml:space="preserve">
<g>
	<g>
		<circle cx="203.5" cy="311.78" r="7.5"/>
	</g>
</g>
<g>
	<g>
		<circle cx="293.5" cy="311.78" r="7.5"/>
	</g>
</g>
<g>
	<g>
		<circle cx="313.5" cy="341.78" r="7.5"/>
	</g>
</g>
<g>
	<g>
		<circle cx="353.5" cy="331.78" r="7.5"/>
	</g>
</g>
<g>
	<g>
		<circle cx="263.5" cy="347.78" r="7.5"/>
	</g>
</g>
<g>
	<g>
		<circle cx="178.5" cy="337.78" r="7.5"/>
	</g>
</g>
<g>
	<g>
		<circle cx="223.5" cy="337.78" r="7.5"/>
	</g>
</g>
<g>
	<g>
		<circle cx="188.5" cy="236.78" r="7.5"/>
	</g>
</g>
<g>
	<g>
		<circle cx="136.5" cy="307.78" r="7.5"/>
	</g>
</g>
<g>
	<g>
		<circle cx="238.5" cy="221.78" r="7.5"/>
	</g>
</g>
<g>
	<g>
		<circle cx="268.5" cy="246.78" r="7.5"/>
	</g>
</g>
<g>
	<g>
		<circle cx="343.5" cy="241.78" r="7.5"/>
	</g>
</g>
<g>
	<g>
		<circle cx="303.5" cy="227.78" r="7.5"/>
	</g>
</g>
<g>
	<g>
		<circle cx="143.5" cy="237.78" r="7.5"/>
	</g>
</g>
<g>
	<g>
		<path d="M489.5,357.782h-86v-78.526c3.908-0.259,7-3.501,7-7.475s-3.092-7.216-7-7.475V208.48c5.803-2.016,10-7.688,10-14.366
			v-32.34c0-15.164-12.337-27.5-27.5-27.5h-96.536c2.877-7.122,3.545-15.026,1.775-22.491c-2.216-9.347-8.146-17.302-16.697-22.401
			c-0.004-0.002-0.009-0.005-0.014-0.008c-0.307-0.183-1.118-0.657-2.194-1.202c-9.371-4.739-19.825-5.236-29.435-1.397
			c-9.837,3.929-17.813,12.17-21.334,22.044c-2.983,8.361-2.65,17.228,0.85,25.456H126c-15.163,0-27.5,12.336-27.5,27.5v32.34
			c0,6.678,4.197,12.35,10,14.366v55.826c-3.908,0.259-7,3.501-7,7.475s3.092,7.216,7,7.475v78.526h-86
			c-12.406,0-22.5,10.093-22.5,22.5c0,12.407,10.094,22.5,22.5,22.5h25.394l14.016,14.016c7.083,7.083,16.5,10.983,26.518,10.983
			h335.146c10.018,0,19.435-3.901,26.518-10.983l14.015-14.016H489.5c12.406,0,22.5-10.093,22.5-22.5
			C512,367.876,501.906,357.782,489.5,357.782z M235.694,113.859c2.097-5.88,6.871-10.798,12.771-13.154
			c3.929-1.569,10.084-2.695,17.094,0.85c0.695,0.353,1.194,0.647,1.287,0.703c0.007,0.004,0.014,0.008,0.021,0.012
			c6.452,3.85,8.879,9.181,9.778,12.976c1.346,5.672,0.239,12.053-2.959,17.071c-0.397,0.623-0.686,1.283-0.881,1.959h-34.074
			c-0.129-0.998-0.457-1.985-1.007-2.902C233.433,124.222,234.251,117.902,235.694,113.859z M113.495,161.775h0.005
			c0-6.893,5.607-12.5,12.5-12.5h260c6.893,0,12.5,5.607,12.5,12.5v32.34c0,0.063-0.007,0.114-0.016,0.156
			c-5.063-0.103-9.836-2.295-13.478-6.201c-3.898-4.18-9.126-6.481-14.722-6.481s-10.823,2.302-14.719,6.481
			c-3.736,4.006-8.656,6.212-13.853,6.212c-5.197,0-10.114-2.206-13.85-6.211c-3.834-4.112-9.205-6.47-14.735-6.469
			c-5.594,0-10.817,2.298-14.705,6.468c-3.736,4.006-8.656,6.212-13.854,6.212h-0.001c-5.195,0-10.113-2.207-13.849-6.211
			c-3.897-4.18-9.126-6.481-14.722-6.481s-10.823,2.302-14.718,6.481c-3.736,4.006-8.656,6.212-13.854,6.212
			c-5.195,0-10.114-2.206-13.85-6.212c-3.892-4.172-9.115-6.469-14.71-6.469c-5.529,0-10.898,2.359-14.729,6.469
			c-3.736,4.006-8.656,6.212-13.854,6.212c-5.196,0-10.115-2.206-13.851-6.211c-3.897-4.18-9.126-6.481-14.722-6.481
			s-10.823,2.302-14.718,6.481c-3.643,3.905-8.417,6.098-13.479,6.201c-0.009-0.042-0.016-0.094-0.016-0.156V161.775z
			 M150.5,279.282v33.5c0,4.142,3.357,7.5,7.5,7.5s7.5-3.358,7.5-7.5v-33.5H196h34.551v13.487c0,4.142,3.357,7.5,7.5,7.5
			s7.5-3.358,7.5-7.5v-13.487h15.019v33.5c0,4.142,3.357,7.5,7.5,7.5s7.5-3.358,7.5-7.5v-33.5H316h44.632v23.494
			c0,4.142,3.357,7.5,7.5,7.5s7.5-3.358,7.5-7.5v-23.494H388.5v78.5h-265v-78.5H150.5z M123.5,264.282V207.63
			c5.416-1.771,10.368-4.937,14.466-9.33c1.027-1.103,2.358-1.71,3.748-1.71c1.39,0,2.721,0.607,3.751,1.711
			c6.604,7.082,15.419,10.981,24.82,10.981c0.001,0,0,0,0.001,0c9.401,0,18.218-3.9,24.823-10.982
			c1.021-1.095,2.356-1.698,3.761-1.698c0.982,0,2.428,0.294,3.737,1.699c6.604,7.081,15.419,10.981,24.82,10.981c0,0,0,0,0.001,0
			c9.401,0,18.217-3.9,24.823-10.982c1.027-1.103,2.358-1.71,3.748-1.71s2.722,0.607,3.75,1.711
			c6.604,7.081,15.418,10.981,24.819,10.981h0.001c9.402,0,18.218-3.9,24.823-10.982c1.309-1.404,2.755-1.698,3.736-1.698
			c1.405,0,2.742,0.603,3.764,1.699c6.604,7.081,15.418,10.981,24.819,10.981h0.001c9.402,0,18.218-3.9,24.822-10.982
			c1.028-1.103,2.36-1.711,3.749-1.711c1.39,0,2.723,0.608,3.751,1.711c4.097,4.394,9.048,7.559,14.464,9.33v56.652H316H196H123.5z
			 M489.5,387.782H376.207c-4.143,0-7.5,3.358-7.5,7.5c0,4.142,3.357,7.5,7.5,7.5h66.686l-3.409,3.41
			c-4.249,4.25-9.899,6.59-15.91,6.59H88.427c-6.011,0-11.661-2.34-15.91-6.59l-3.41-3.41H132.5c4.143,0,7.5-3.358,7.5-7.5
			c0-4.142-3.357-7.5-7.5-7.5h-110c-4.136,0-7.5-3.364-7.5-7.5s3.364-7.5,7.5-7.5h467c4.136,0,7.5,3.364,7.5,7.5
			S493.636,387.782,489.5,387.782z"/>
	</g>
</g>
<g>
</g>
<g>
</g>
<g>
</g>
<g>
</g>
<g>
</g>
<g>
</g>
<g>
</g>
<g>
</g>
<g>
</g>
<g>
</g>
<g>
</g>
<g>
</g>
<g>
</g>
<g>
</g>
<g>
</g>
</svg>
