<?xml version="1.0" encoding="iso-8859-1"?>
<!-- Generator: Adobe Illustrator 16.0.0, SVG Export Plug-In . SVG Version: 6.00 Build 0)  -->
<!DOCTYPE svg PUBLIC "-//W3C//DTD SVG 1.1//EN" "http://www.w3.org/Graphics/SVG/1.1/DTD/svg11.dtd">
<svg version="1.1" id="Capa_1" xmlns="http://www.w3.org/2000/svg" xmlns:xlink="http://www.w3.org/1999/xlink" x="0px" y="0px"
	 width="214.351px" height="214.35px" viewBox="0 0 214.351 214.35" style="enable-background:new 0 0 214.351 214.35;"
	 xml:space="preserve">
<g>
	<path d="M214.243,108.639c-6.192-24.027-20.454-43.449-42.393-57.727c-1.673-1.087-6.062-3.502-6.188-3.571l1.06-3.056
		c0.558-1.604-0.165-3.371-1.685-4.128c-9.479-4.717-33.645-11.346-57.863-11.415c-24.219,0.069-48.385,6.698-57.863,11.415
		c-1.52,0.756-2.241,2.524-1.685,4.128l1.06,3.056c-0.126,0.069-4.516,2.484-6.188,3.571C20.562,65.19,6.298,84.612,0.107,108.639
		c-0.344,1.334,0.157,2.742,1.266,3.56l2.766,2.039c-3.407,30.423,5.968,57.093,7.92,62.22c2.149,5.643,7.472,9.149,13.891,9.149
		c6.197,0,14.049-3.347,16.643-10.695c0.023-0.065,6.016-18.104,11.172-24.135c0.628,0.577,1.445,0.896,2.284,0.896
		c0.565,0,1.139-0.143,1.665-0.442c6.742-3.833,15.051-6.054,24.722-6.621l1.295,3.731c0.434,1.252,1.559,2.133,2.878,2.254
		c0.316,0.029,1.154,0.107,7.104,0.107l1.277-0.001c3.955,0,6.952-2.963,7.844-7.771c0.12-0.485,2.56-13.545,4.341-13.545
		c1.781,0,4.221,13.06,4.34,13.545c0.892,4.809,3.889,7.771,7.845,7.771l1.276,0.001c5.95,0,6.789-0.076,7.104-0.107
		c1.317-0.121,2.443-1.004,2.878-2.254l1.295-3.731c9.671,0.567,17.981,2.788,24.722,6.621c0.527,0.299,1.101,0.442,1.665,0.442
		c0.838,0,1.656-0.318,2.284-0.896c5.156,6.028,8.627,13.884,10.924,23.265c2.904,11.865,10.695,11.565,16.893,11.565
		c6.419,0,11.741-3.507,13.891-9.149c1.952-5.127,11.327-31.797,7.92-62.22l2.766-2.039
		C214.086,111.381,214.587,109.973,214.243,108.639z M36.275,172.477l-0.078,0.275c-1.46,3.965-6.352,6.104-10.247,6.104
		c-3.657,0-6.421-1.75-7.583-4.802c-1.768-4.645-9.955-27.907-7.894-55.104l37.802,27.854
		C42.599,153.594,38.57,162.211,36.275,172.477z M55.575,143.831l-48.34-35.695C13.283,86.8,26.376,69.459,46.179,56.571
		c1.303-0.848,3.028-1.81,4.752-2.76L80.142,138C71,138.74,57.669,143.34,55.575,143.831z M125.004,143.93
		c-0.965,0.013-5.645,0.021-5.645,0.021c-0.637,0-5.247-21.896-12.185-21.896c-6.937,0-11.549,21.896-12.185,21.896
		c0,0-4.679-0.008-5.645-0.021l-34.33-98.941c10.162-4.182,31.356-9.433,52.159-9.496c20.802,0.063,41.997,5.314,52.159,9.496
		L125.004,143.93z M195.983,174.055c-1.162,3.051-3.927,4.801-7.583,4.801c-3.895,0-8.851,1.162-10.325-6.379
		c-1.826-9.334-6.324-18.883-12-25.674l37.801-27.854C205.938,146.147,197.751,169.41,195.983,174.055z M158.26,144.436
		c-6.842-3.539-14.908-5.696-24.053-6.436l29.211-84.191c1.724,0.95,3.449,1.913,4.752,2.76
		c19.803,12.888,32.897,30.229,38.944,51.563C207.115,108.135,160.148,142.988,158.26,144.436z"/>
</g>
<g>
</g>
<g>
</g>
<g>
</g>
<g>
</g>
<g>
</g>
<g>
</g>
<g>
</g>
<g>
</g>
<g>
</g>
<g>
</g>
<g>
</g>
<g>
</g>
<g>
</g>
<g>
</g>
<g>
</g>
</svg>
