<?xml version="1.0" encoding="iso-8859-1"?>
<!-- Generator: Adobe Illustrator 19.0.0, SVG Export Plug-In . SVG Version: 6.00 Build 0)  -->
<svg xmlns="http://www.w3.org/2000/svg" xmlns:xlink="http://www.w3.org/1999/xlink" version="1.1" id="Layer_1" x="0px" y="0px" viewBox="0 0 512 512" style="enable-background:new 0 0 512 512;" xml:space="preserve" width="512px" height="512px">
<g>
	<g>
		<path d="M481.222,160.041c-0.32-20.471-16.022-37.275-36.036-39.317c-1.652-7.322-5.326-14.047-10.762-19.483    c-3.513-3.511-9.204-3.511-12.716,0c-3.511,3.511-3.511,9.204,0,12.715c2.571,2.57,4.425,5.664,5.48,9.039    c-12.576,4.636-22.087,15.372-25.187,28.447c-7.932-1.448-14.543-7.101-17.087-15.016c-0.707-2.165-1.067-4.448-1.067-6.785    c0-5.854,2.262-11.374,6.382-15.558c4.189-4.269,9.799-6.62,15.796-6.62c4.967,0,8.991-4.026,8.991-8.991    s-4.024-8.991-8.991-8.991c-6.766,0-13.261,1.656-19.031,4.77c-7.369-10.511-19.478-17.058-32.852-17.058    c-7.381,0-14.557,2.058-20.777,5.815c-7.487-9.246-18.825-14.831-31.181-14.831c-5.503,0-10.918,1.126-15.917,3.285    c-8.177-4.144-17.13-6.563-26.313-7.104c-2.514-6.447-6.408-13.425-12.451-19.47c-3.511-3.51-9.204-3.511-12.715,0    c-3.513,3.511-3.513,9.204-0.001,12.716c2.569,2.569,4.571,5.444,6.141,8.35c-5.264,1.212-10.37,3.057-15.203,5.507    c-4.993-2.158-10.404-3.284-15.909-3.284c-12.349,0-23.685,5.583-31.173,14.831c-6.211-3.755-13.391-5.815-20.784-5.815    c-13.382,0-25.493,6.549-32.857,17.065c-5.775-3.12-12.267-4.777-19.027-4.777c-19.079,0-35.083,13.379-39.151,31.245    c-20.019,2.038-35.726,18.844-36.046,39.317C10.62,175.667,0,193.628,0,212.212c0,0.028,0.002,0.054,0.002,0.081v149.926    c0,30.25,27.702,57.96,78.005,78.027c47.688,19.024,110.9,29.5,177.992,29.5c67.091,0,130.302-10.476,177.991-29.5    c50.303-20.067,78.005-47.777,78.005-78.027V212.391c0-0.06,0.004-0.119,0.004-0.179C512,193.628,501.38,175.667,481.222,160.041z     M418.9,160.59c0.042-11.13,8.38-20.549,19.471-21.918c0.874-0.116,1.785-0.175,2.707-0.175c12.229,0,22.178,9.949,22.178,22.178    c0,1.228-0.101,2.441-0.295,3.63c-6.404-4.175-13.937-6.447-21.883-6.447c-7.947,0-15.481,2.272-21.883,6.445    c-0.194-1.188-0.295-2.4-0.295-3.628V160.59z M463.255,198.018c0.001,10.853-7.839,19.892-18.15,21.794    c-3.099-13.077-12.622-23.824-25.183-28.447c0.742-2.364,1.875-4.6,3.397-6.629c4.227-5.654,10.701-8.896,17.758-8.896    s13.531,3.243,17.769,8.91C461.73,188.593,463.255,193.181,463.255,198.018z M408.808,207.062    c11.015,1.359,19.354,10.777,19.396,21.875v0.12c0,12.229-9.949,22.178-22.178,22.178c-4.412,0-8.616-1.284-12.209-3.66    c0.321-2.049,0.484-4.13,0.484-6.23c0-8.49-2.633-16.589-7.491-23.354c3.893-6.786,11.135-11.112,19.216-11.112    C406.947,206.878,407.857,206.937,408.808,207.062z M401.923,169.568c0.767,3.402,1.958,6.687,3.589,9.781    c-1.633,3.093-2.823,6.375-3.589,9.779c-11.67,1.182-22.05,7.343-28.66,16.692c1.379-5.395,2.085-10.944,2.085-16.588    c0-12-3.147-23.504-9.022-33.597c2.369-0.749,4.661-1.714,6.849-2.894C379.774,162.165,390.192,168.38,401.923,169.568z     M335.956,228.636c4.083-5.868,10.805-9.469,18.185-9.469c5.996,0,11.607,2.351,15.809,6.633    c4.108,4.171,6.369,9.691,6.369,15.545c0,2.336-0.358,4.62-1.08,6.826c-2.951,9.183-11.43,15.352-21.098,15.352    c-4.621,0-9.104-1.467-12.836-4.108c0.683-2.953,1.038-5.978,1.038-9.056C342.343,242.594,340.104,235.083,335.956,228.636z     M337.669,102.49c4.209-4.649,10.213-7.316,16.472-7.316c8.082-0.001,15.323,4.325,19.217,11.113    c-4.862,6.768-7.493,14.864-7.493,23.352c0,2.105,0.164,4.191,0.484,6.24c-3.825,2.539-8.343,3.828-13.125,3.629    c-5.535-4.995-11.932-9.076-18.773-11.981c-0.295-0.568-0.577-1.142-0.82-1.729c-1.108-2.677-1.669-5.519-1.669-8.446    C331.963,111.855,333.995,106.57,337.669,102.49z M342.943,154.52c9.302,9.257,14.423,21.585,14.423,34.71    c0,4.081-0.501,8.093-1.485,11.995c-0.578-0.025-1.157-0.043-1.74-0.043c-12.356,0-23.696,5.584-31.181,14.832    c-6.219-3.756-13.398-5.818-20.775-5.818c-8.325,0-16.39,2.611-23.102,7.323c-3.695-2.605-7.845-4.601-12.308-5.845    c2.561-7.164,3.871-14.684,3.871-22.445c0-8.54-1.582-16.794-4.683-24.609c8.721-14.94,24.947-24.409,42.384-24.409    c1.574,0,3.188,0.078,4.794,0.234c4.132,0.399,8.183,1.321,12.052,2.743C331.801,145.607,337.935,149.522,342.943,154.52z     M291.222,231.086c3.311-1.88,7.086-2.905,10.961-2.905c6.252,0,12.258,2.67,16.462,7.307c3.685,4.083,5.716,9.365,5.716,14.871    c0,2.927-0.561,5.769-1.674,8.459c-3.43,8.334-11.479,13.719-20.504,13.719c-3.876,0-7.651-1.025-10.962-2.905    c3.146-5.726,4.939-12.294,4.939-19.274C296.16,243.377,294.367,236.81,291.222,231.086z M278.178,250.357    c0,12.229-9.949,22.178-22.178,22.178s-22.178-9.949-22.178-22.178c0-12.229,9.949-22.178,22.178-22.178    S278.178,238.128,278.178,250.357z M320.37,95.63c-1.454,2.262-2.679,4.653-3.649,7.143c-2.764-5.917-6.392-11.404-10.797-16.291    C311.797,87.476,316.99,90.771,320.37,95.63z M230.561,89.322c4.866-2.959,10.196-5.019,15.743-6.135    c0.199,1.603,0.236,2.585,0.237,2.639c0.117,4.886,4.114,8.776,8.985,8.776c0.06,0,0.121,0,0.18-0.001    c4.965-0.098,8.911-4.201,8.814-9.166c-0.004-0.174-0.029-1.061-0.156-2.474c6.02,1.041,11.813,3.172,17.064,6.363    c12.195,7.409,20.316,19.385,22.781,33.054c-18.965,1.212-36.495,10.487-48.211,25.076c-11.71-14.588-29.246-23.865-48.208-25.076    C210.253,108.709,218.371,96.732,230.561,89.322z M206.071,86.483c-4.402,4.885-8.027,10.371-10.791,16.285    c-0.97-2.488-2.194-4.874-3.647-7.133C195.013,90.776,200.201,87.479,206.071,86.483z M157.859,95.172    c6.269,0,12.267,2.666,16.462,7.319c3.685,4.083,5.716,9.36,5.716,14.859c0,2.939-0.559,5.77-1.668,8.432    c-0.247,0.596-0.527,1.169-0.819,1.733c-6.83,2.899-13.222,6.978-18.77,11.976c-0.308,0.013-0.62,0.036-0.923,0.036    c-4.413,0-8.616-1.288-12.206-3.67c0.32-2.049,0.482-4.128,0.482-6.221c0-8.497-2.634-16.596-7.491-23.35    C142.531,99.5,149.773,95.172,157.859,95.172z M138.831,152.736c2.191,1.183,4.487,2.149,6.86,2.901    c-1.392,2.4-2.654,4.883-3.747,7.461c-1.937,4.571,0.197,9.849,4.769,11.788c4.57,1.94,9.849-0.195,11.788-4.768    c2.478-5.847,6.028-11.096,10.548-15.6c5.029-5.009,11.173-8.93,17.771-11.342c3.864-1.413,7.915-2.332,12.042-2.731    c1.605-0.156,3.219-0.234,4.793-0.234c18.673,0,35.956,10.838,44.111,27.634c0.038,0.089,0.079,0.177,0.122,0.265    c3.168,6.61,4.774,13.716,4.774,21.121c0,7.407-1.606,14.508-4.771,21.104c-0.041,0.085-0.08,0.171-0.119,0.257    c-0.088,0.18-0.179,0.342-0.266,0.518c-5.332,1.153-10.27,3.37-14.587,6.415c-6.706-4.715-14.773-7.326-23.102-7.326    c-7.391,0-14.57,2.062-20.778,5.817c-7.494-9.248-18.832-14.832-31.179-14.832c-0.583,0-1.163,0.018-1.742,0.043    c-0.982-3.898-1.482-7.911-1.482-11.995c0-4.966-4.024-8.991-8.991-8.991s-8.991,4.026-8.991,8.991    c0,5.644,0.704,11.19,2.079,16.58c-6.608-9.345-16.984-15.502-28.654-16.684c-0.767-3.407-1.96-6.692-3.593-9.78    c1.634-3.094,2.824-6.376,3.592-9.78C121.804,168.379,132.225,162.16,138.831,152.736z M220.778,269.63    c-3.308,1.881-7.084,2.906-10.963,2.906c-9.02,0-17.075-5.393-20.521-13.741c-1.099-2.663-1.656-5.501-1.656-8.437    c0-5.498,2.032-10.773,5.732-14.863c4.19-4.649,10.184-7.315,16.446-7.315c3.879,0,7.654,1.025,10.962,2.906    c-3.144,5.724-4.938,12.291-4.938,19.271C215.84,257.337,217.633,263.906,220.778,269.63z M170.69,259.413    c-3.718,2.641-8.197,4.107-12.83,4.107c-9.666,0-18.151-6.176-21.113-15.371c-0.706-2.19-1.065-4.48-1.065-6.807    c-0.001-5.854,2.257-11.367,6.38-15.544c4.197-4.277,9.807-6.633,15.797-6.633c7.374,0,14.098,3.605,18.19,9.478    c-4.149,6.439-6.393,13.951-6.393,21.714C169.656,253.438,170.009,256.465,170.69,259.413z M118.182,247.565    c-3.59,2.383-7.795,3.67-12.206,3.67c-12.229,0-22.178-9.949-22.178-22.178v-0.085c0.041-11.131,8.38-20.55,19.472-21.919    c0.874-0.115,1.783-0.174,2.705-0.174c8.088,0,15.33,4.328,19.218,11.118c-4.862,6.763-7.493,14.857-7.493,23.348    C117.7,243.436,117.862,245.515,118.182,247.565z M105.974,107.46c5.989,0,11.6,2.356,15.815,6.652    c4.104,4.156,6.363,9.67,6.363,15.526c0,2.329-0.358,4.619-1.066,6.81c-2.54,7.887-9.152,13.539-17.083,14.99    c-3.098-13.08-12.622-23.829-25.186-28.453C87.651,113.998,96.062,107.46,105.974,107.46z M70.922,138.498    c0.922,0,1.831,0.059,2.781,0.183c11.015,1.359,19.355,10.779,19.397,21.875v0.12c0,1.249-0.107,2.482-0.308,3.69    c-6.441-4.179-14.043-6.507-21.87-6.507c-7.831,0-15.433,2.328-21.871,6.504c-0.2-1.207-0.307-2.438-0.307-3.686    C48.744,148.446,58.693,138.498,70.922,138.498z M494.014,212.206v0.131c-0.076,18.061-16.114,32.817-29.577,42.024    c-4.099,2.803-5.15,8.398-2.346,12.496c1.741,2.547,4.56,3.917,7.429,3.917c1.748,0,3.515-0.508,5.067-1.57    c7.604-5.199,14.092-10.687,19.427-16.396v11.602c0,22.067-24.306,44.42-66.686,61.325    c-45.62,18.199-106.465,28.221-171.328,28.221c-50.349,0-98.59-6.068-139.508-17.548c-4.78-1.341-9.744,1.448-11.085,6.228    c-1.341,4.78,1.447,9.744,6.227,11.085c42.477,11.917,92.398,18.217,144.367,18.217c67.091,0,130.302-10.476,177.991-29.5    c26.562-10.596,46.816-23.325,60.023-37.433v9.86c0,19.055-17.989,38.324-50.652,54.257c-4.463,2.177-6.317,7.56-4.139,12.023    c1.558,3.195,4.758,5.051,8.088,5.051c1.322,0,2.666-0.292,3.935-0.912c18.311-8.932,32.634-18.92,42.769-29.702v6.638    c0,22.067-24.306,44.418-66.686,61.325c-45.62,18.198-106.465,28.221-171.328,28.221c-64.864,0-125.71-10.022-171.329-28.221    c-42.38-16.907-66.686-39.26-66.686-61.325v-6.76c13.207,14.108,33.461,26.837,60.023,37.433    c47.688,19.024,110.9,29.5,177.992,29.5c59.671,0,117.599-8.53,163.11-24.017c4.702-1.599,7.216-6.707,5.616-11.408    c-1.6-4.702-6.711-7.214-11.409-5.615C369.622,396.221,313.753,404.41,256,404.41c-64.864,0-125.71-10.022-171.329-28.221    c-42.38-16.907-66.686-39.26-66.686-61.325v-9.839c13.443,14.352,34.191,27.272,61.465,37.981c1.079,0.424,2.19,0.625,3.284,0.625    c3.589,0,6.979-2.164,8.371-5.708c1.815-4.621-0.462-9.84-5.083-11.655c-43.239-16.979-68.039-39.525-68.039-61.861v-11.604    c13.208,14.105,33.461,26.833,60.022,37.428c47.688,19.023,110.898,29.499,177.987,29.499c73.446,0,143.2-12.852,191.378-35.262    c4.503-2.094,6.454-7.442,4.361-11.944c-2.095-4.503-7.442-6.456-11.945-4.36c-45.886,21.344-112.876,33.585-183.793,33.585    c-64.86,0-125.705-10.022-171.324-28.22c-42.337-16.888-66.635-39.21-66.685-61.251v-0.072c0-0.01-0.001-0.019-0.001-0.029    c0.013-12.687,7.953-23.721,17.078-32.218c-2.816,5.555-4.299,11.685-4.299,18.056c0,4.966,4.024,8.991,8.991,8.991    c4.967,0,8.991-4.026,8.991-8.991c0-4.838,1.526-9.423,4.436-13.289c4.216-5.649,10.681-8.889,17.742-8.889    c7.061,0,13.526,3.24,17.763,8.919c1.521,2.021,2.653,4.252,3.395,6.615c-12.568,4.633-22.075,15.362-25.18,28.427    c-4.739-0.879-9.124-3.268-12.409-6.887c-3.337-3.677-9.025-3.953-12.7-0.615c-3.677,3.337-3.954,9.023-0.616,12.7    c6.676,7.356,15.853,11.953,25.647,12.964c4.065,17.869,20.07,31.251,39.152,31.251c6.759,0,13.253-1.656,19.03-4.776    c7.368,10.515,19.479,17.064,32.855,17.064c7.389,0,14.568-2.061,20.778-5.818c7.495,9.248,18.832,14.833,31.179,14.833    c8.331,0,16.397-2.611,23.104-7.326c6.536,4.607,14.495,7.325,23.081,7.325s16.544-2.718,23.078-7.324    c6.712,4.715,14.779,7.325,23.105,7.325c12.359,0,23.699-5.586,31.182-14.83c6.219,3.756,13.398,5.817,20.774,5.817    c13.387,0,25.501-6.554,32.856-17.055c5.777,3.115,12.271,4.768,19.029,4.768c19.079,0,35.083-13.379,39.151-31.245    c20.228-2.058,36.064-19.191,36.064-39.953c0-6.367-1.481-12.494-4.288-18.046c9.117,8.492,17.046,19.517,17.066,32.192    C494.017,212.177,494.014,212.19,494.014,212.206z" fill="#7b001d"/>
	</g>
</g>
<g>
	<g>
		<path d="M332.248,158.825c-1.056-4.852-5.845-7.935-10.696-6.875c-0.046,0.01-4.621,0.727-6.917-1.568    c-3.513-3.511-9.204-3.511-12.716,0c-3.511,3.511-3.511,9.204,0,12.715c5.777,5.777,12.981,6.954,17.896,6.954    c2.914,0,5.023-0.414,5.556-0.53C330.224,168.466,333.303,163.678,332.248,158.825z" fill="#7b001d"/>
	</g>
</g>
<g>
	<g>
		<path d="M210.265,150.382c-3.511-3.511-9.203-3.511-12.716,0c-2.296,2.294-6.872,1.578-6.917,1.568    c-4.85-1.06-9.64,2.024-10.696,6.875c-1.055,4.853,2.024,9.641,6.876,10.696c0.533,0.116,2.642,0.53,5.556,0.53    c4.916,0,12.12-1.177,17.896-6.954C213.777,159.586,213.777,153.893,210.265,150.382z" fill="#7b001d"/>
	</g>
</g>
<g>
</g>
<g>
</g>
<g>
</g>
<g>
</g>
<g>
</g>
<g>
</g>
<g>
</g>
<g>
</g>
<g>
</g>
<g>
</g>
<g>
</g>
<g>
</g>
<g>
</g>
<g>
</g>
<g>
</g>
</svg>
